# xmcd
#
# Track frame offsets:
#	150
#	14550
#	28525
#	41200
#	52300
#	68525
#	81125
#	92775
#	107200
#	120875
#	135350
#	148700
#
# Disc length: 2225 seconds
#
# Revision: 1
# Processed by: cddbd v1.5.2PL0 Copyright (c) Steve Scherf et al.
# Submitted via: audiograbber 1.83.01
#
DISCID=a108af0c
DTITLE=Dann Garner - Lonely Dann Garner
DYEAR=2003
DGENRE=Country
TTITLE0=Lonely
TTITLE1=High Country Wind
TTITLE2=Tribute To Roy Orbison
TTITLE3=My Will For Living
TTITLE4=Corie Anne
TTITLE5=The Time I´ve Cried
TTITLE6=Silver Eagel
TTITLE7=Hell´s Freezin´ Over
TTITLE8=Rany Night In Cobenhagen
TTITLE9=Love Hell And Fire
TTITLE10=Love Me Girl
TTITLE11=I Won´t
EXTD=
EXTT0=
EXTT1=
EXTT2=
EXTT3=
EXTT4=
EXTT5=
EXTT6=
EXTT7=
EXTT8=
EXTT9=
EXTT10=
EXTT11=
PLAYORDER=
